<svg width="1440" height="1163" viewBox="0 0 1440 1163" fill="none" xmlns="http://www.w3.org/2000/svg">
<g clip-path="url(#clip0_2775_316)">
<path d="M4.34326 736.871C15.3147 761.091 49.3718 773.201 70.6289 760.406C82.7432 753.094 91.429 744.64 94.8575 736.186L98.0575 728.874H214.172H330.286L538.286 937.026C656 1054.7 749.486 1146.32 753.6 1148.38C759.772 1151.12 794.972 1151.58 983.772 1151.58C1122.97 1151.58 1208.69 1150.66 1212.34 1149.29C1215.54 1148.15 1234.06 1133.53 1253.03 1116.85C1272.23 1100.17 1300.8 1075.49 1316.34 1061.78C1341.26 1040.3 1345.14 1037.56 1346.97 1041.22C1358.86 1063.38 1390.17 1072.29 1413.49 1060.18C1419.89 1056.75 1427.43 1050.36 1431.77 1044.64C1438.4 1035.28 1438.86 1033.22 1438.86 1015.63C1438.86 998.032 1438.4 995.976 1431.77 986.608C1423.31 974.727 1404.34 964.445 1390.86 964.445C1380.57 964.216 1363.89 971.071 1355.89 978.611C1352.91 981.353 1347.89 988.436 1344.91 994.376C1339.43 1005.12 1327.09 1016.54 1237.26 1094L1204.8 1121.87H984.457H764.115L553.6 911.664L342.858 701.456H220.572H98.2861L95.3147 693.916C91.6575 685.69 75.8861 670.382 67.2003 667.183C60.5718 664.669 45.0289 664.212 34.5146 666.269C25.1432 668.097 7.54321 683.862 3.42896 693.916C-1.37109 705.112 -0.91394 725.676 4.34326 736.871ZM32.0004 700.77C41.829 688.204 62.8575 690.717 69.7146 705.34C74.5146 715.165 72.686 722.705 64.0004 731.388C45.0289 750.581 15.3147 722.02 32.0004 700.77ZM1370.29 1005.57C1374.4 997.575 1387.43 990.949 1395.43 993.006C1403.43 995.062 1412.57 1006.49 1412.57 1014.71C1412.57 1028.65 1404.57 1037.1 1391.31 1037.33C1380.34 1037.33 1374.86 1034.36 1370.51 1026.36C1366.17 1018.37 1365.94 1013.57 1370.29 1005.57Z" fill="#E4E4E4"/>
<path d="M81.8284 654.159C85.7141 657.586 97.8284 658.043 208.228 658.043H330.286L541.029 868.708L752 1079.6L978.971 1080.29C1103.54 1080.52 1208 1080.29 1210.74 1079.6C1213.49 1078.92 1231.54 1064.75 1250.97 1048.07C1374.63 941.824 1370.74 945.937 1364.8 934.741C1360.69 927.201 1351.77 926.287 1343.31 932.456C1336.69 937.255 1294.63 973.356 1228.8 1030.93L1203.43 1053.1L984 1053.33H764.571L553.143 841.975L341.714 630.625H213.486C92.1141 630.625 85.0284 630.853 81.5999 634.737C76.5713 640.221 76.7998 649.589 81.8284 654.159Z" fill="#E4E4E4"/>
<path d="M81.3712 583.556C84.5713 586.755 99.1998 587.212 207.543 587.212H330.286L541.714 798.563L753.143 1009.91H984L1214.86 1009.69L1225.14 1000.55C1236.11 990.721 1318.63 919.204 1344 897.498L1359.31 884.474L1368.23 888.815C1378.74 894.299 1400 894.984 1410.97 890.186C1419.89 886.302 1434.29 871.679 1437.49 862.996C1441.14 853.628 1440.46 832.836 1436.57 823.011C1431.77 811.815 1424.91 804.961 1412.11 798.334C1376.69 780.284 1335.54 810.673 1340.34 851.115L1341.71 862.996L1303.54 895.898C1282.51 913.949 1251.43 940.91 1234.06 955.534L1202.74 982.495H983.543H764.571L553.143 771.144L341.714 559.794H213.486C92.1141 559.794 85.0284 560.022 81.5999 563.906C76.7998 569.162 76.5713 578.987 81.3712 583.556ZM1372.11 831.465C1378.97 821.412 1388.8 818.441 1399.31 823.468C1413.94 830.551 1417.14 848.145 1405.94 859.34C1395.43 869.851 1378.74 867.566 1370.74 854.999C1365.49 846.545 1365.94 840.605 1372.11 831.465Z" fill="#E4E4E4"/>
<path d="M288.914 175.021C293.486 185.075 307.2 199.926 315.429 203.354L322.286 206.095V357.354V508.384L537.6 723.619C713.143 899.097 754.286 939.083 759.086 939.083C766.4 939.083 772.572 932.685 772.572 925.145C772.572 920.804 725.257 872.364 562.286 709.453L352 499.245V353.013V207.009L359.543 202.897C366.857 199.241 377.829 188.273 382.857 179.591C384.457 176.849 385.143 226.659 385.143 332.22V488.963L565.257 669.011C719.314 823.011 745.6 850.201 747.657 857.97C753.6 879.219 773.029 893.385 796.114 893.385C823.771 893.385 843.886 875.335 847.314 847.916C848.686 835.806 842.743 819.127 833.6 809.302C825.372 800.391 808.229 792.851 796.572 792.851C783.772 792.851 765.486 801.533 758.4 811.13L753.372 818.213L583.543 648.447L413.714 478.681V247.909C413.714 -10.5105 414.857 5.94055 398.172 7.31152C384.686 8.45392 384 11.6528 384 77.4571V135.721L376 126.353C354.972 101.905 320.457 100.991 299.657 124.525C285.943 140.291 282.057 159.027 288.914 175.021ZM320.686 142.347C327.086 135.264 338.286 133.436 346.972 138.006C360.914 145.318 363.429 162.683 352.229 173.879C343.543 182.561 332.343 182.79 322.514 174.793C312.229 166.11 311.543 152.401 320.686 142.347ZM778.286 830.323C790.857 812.272 818.286 822.097 818.286 844.489C818.286 861.625 800.686 871.222 784 862.539C780.572 860.711 777.143 857.97 776.457 856.37C773.943 850.201 775.086 834.892 778.286 830.323Z" fill="#E4E4E4"/>
<path d="M428.343 126.353C433.143 139.377 444.114 151.487 455.314 155.6L461.714 158.113V306.173C461.714 396.882 462.629 456.746 464 460.173C465.143 463.372 514.743 515.01 574.171 574.874C633.6 634.737 682.514 684.319 682.743 685.005C682.971 685.919 684.343 690.945 685.714 696.201C690.971 716.536 711.314 731.616 733.486 731.616C771.886 731.616 795.886 693.002 778.514 658.729C770.286 642.049 756.114 632.681 737.371 631.31C720.457 629.939 709.943 633.824 698.743 645.476L690.743 653.473L591.086 552.711L491.428 451.719V304.802C491.428 158.341 491.428 157.885 496.228 156.514C509.714 152.172 528 126.353 528 111.502C528 92.7656 512.457 70.1454 494.629 62.6053C469.257 52.0949 436.343 67.8605 428.571 94.5936C424.457 108.303 424.457 114.929 428.343 126.353ZM459.2 95.9645C461.486 92.7656 466.971 89.3383 471.314 88.1959C481.828 85.454 490.971 90.0238 496.457 100.991C500.343 108.531 500.571 109.902 497.6 117.214C489.143 136.864 464 138.006 456.228 119.042C452.571 109.902 453.257 104.647 459.2 95.9645ZM714.057 670.838C722.743 649.818 756.343 658.043 756.571 681.12C756.8 704.655 723.428 712.88 714.286 691.631C710.171 682.263 710.171 680.206 714.057 670.838Z" fill="#E4E4E4"/>
</g>
<defs>
<clipPath id="clip0_2775_316">
<rect width="1163" height="1440" fill="white" transform="matrix(0 -1 1 0 0 1163)"/>
</clipPath>
</defs>
</svg>
