<svg width="66" height="66" viewBox="0 0 66 66" fill="none" xmlns="http://www.w3.org/2000/svg">
<path d="M0 33C0 14.7746 14.7746 0 33 0C51.2255 0 66 14.7746 66 33C66 51.2255 51.2255 66 33 66C14.7746 66 0 51.2255 0 33Z" fill="#C0C0C0"/>
<path d="M33.0002 40.3333C41.1003 40.3333 47.6668 33.7668 47.6668 25.6667C47.6668 17.5665 41.1003 11 33.0002 11C24.9 11 18.3335 17.5665 18.3335 25.6667C18.3335 33.7668 24.9 40.3333 33.0002 40.3333Z" fill="#F1F1F1"/>
<path fill-rule="evenodd" clip-rule="evenodd" d="M55.8102 55.9027C56.0236 56.2562 55.9583 56.7087 55.6584 56.9917C49.7474 62.5761 41.7738 66 33.0002 66C24.2269 66 16.2532 62.5764 10.3423 56.9921C10.0424 56.7087 9.97726 56.2566 10.1905 55.9031C14.4592 48.8327 23.0714 44 33.0006 44C42.9292 44 51.5415 48.8323 55.8102 55.9027Z" fill="#F1F1F1"/>
</svg>
