<svg width="24" height="24" viewBox="0 0 24 24" fill="none" xmlns="http://www.w3.org/2000/svg">
<path d="M19.8468 5.59528V5.59608C19.8468 6.39152 19.2018 7.03571 18.4071 7.03571C17.6125 7.03571 16.9675 6.39072 16.9675 5.59608C16.9675 4.80064 17.6125 4.15645 18.4071 4.15645C19.2018 4.15725 19.846 4.80064 19.8468 5.59528ZM12.0004 16.0008C9.79094 16.0008 8 14.2099 8 12.0004C8 9.79094 9.79094 8 12.0004 8C14.2099 8 16.0008 9.79094 16.0008 12.0004C16.0008 14.2091 14.2107 16 12.002 16H12.0012L12.0004 16.0008ZM12.0004 5.83855C8.59698 5.83855 5.83855 8.59778 5.83855 12.0004C5.83855 15.403 8.59778 18.1622 12.0004 18.1622C15.4038 18.1622 18.1622 15.403 18.1622 12.0004C18.1622 12.0004 18.1622 12.0004 18.1622 11.9996C18.1622 8.59698 15.4038 5.83775 12.0004 5.83775C12.0004 5.83775 12.0004 5.83775 11.9996 5.83775L12.0004 5.83855ZM12.0004 2.16065C15.2038 2.16065 15.5855 2.17665 16.8507 2.23187C17.6533 2.24147 18.4167 2.39352 19.1233 2.6624L19.0777 2.64719C20.1292 3.05692 20.9455 3.87316 21.3464 4.89747L21.356 4.92468C21.6089 5.58568 21.7593 6.3499 21.7689 7.14774V7.15175C21.8257 8.41773 21.8386 8.79784 21.8386 12.002C21.8386 15.2062 21.8233 15.5871 21.7649 16.8523C21.7497 17.6557 21.5969 18.4191 21.3288 19.1257L21.344 19.0793C21.1375 19.6203 20.8318 20.0812 20.4453 20.4605L20.4445 20.4613C20.066 20.8487 19.6051 21.1543 19.0905 21.3488L19.0649 21.3576C18.4015 21.6105 17.6349 21.7609 16.8339 21.7705H16.8298C15.5559 21.8273 15.1806 21.8402 11.9708 21.8402C8.75943 21.8402 8.38492 21.8249 7.11173 21.7665C6.30509 21.7513 5.53846 21.5985 4.82865 21.3304L4.87586 21.3456C4.3349 21.1423 3.87396 20.8358 3.49785 20.4477L3.49705 20.4469C3.10573 20.0708 2.79844 19.6091 2.60558 19.0921L2.59758 19.0673C2.3455 18.4047 2.19266 17.6389 2.17745 16.8387V16.8322C2.13264 15.5719 2.11663 15.183 2.11663 11.9884C2.11663 8.79224 2.13264 8.40252 2.17745 7.12694C2.19266 6.3211 2.3447 5.55527 2.61278 4.84625L2.59758 4.89347C2.79524 4.3501 3.10333 3.88757 3.49625 3.51385L3.49785 3.51225C3.87236 3.11854 4.3341 2.81204 4.85186 2.62239L4.87666 2.61438C5.53526 2.35991 6.29629 2.20706 7.09173 2.19346H7.09733C8.37211 2.14864 8.74742 2.13344 11.9564 2.13344L12.0004 2.16065ZM12.0004 0C8.74022 0 8.3337 0.0152046 7.05332 0.0720216C6.001 0.0944284 5.0031 0.297689 4.07962 0.650595L4.14044 0.630589C3.30819 0.948285 2.59918 1.41963 2.015 2.0134L2.0142 2.0142C1.41803 2.59838 0.947484 3.30819 0.643393 4.10043L0.629789 4.14044C0.296889 5.0031 0.0936281 6.0018 0.0720216 7.04371V7.05332C0.0120036 8.3337 0 8.74022 0 12.0004C0 15.2606 0.0152046 15.6671 0.0720216 16.9475C0.0944284 17.9998 0.297689 18.9977 0.650595 19.9212L0.630589 19.8604C1.26758 21.4776 2.52316 22.7332 4.09883 23.3558L4.14044 23.3702C5.0031 23.7023 6.0018 23.9056 7.04371 23.928H7.05332C8.3337 23.988 8.74022 24 12.0004 24C15.2606 24 15.6671 23.9848 16.9475 23.928C17.9998 23.9048 18.9977 23.7023 19.9212 23.3494L19.8604 23.3702C21.4776 22.7332 22.7332 21.4776 23.3558 19.902L23.3702 19.8604C23.7031 18.9977 23.9056 17.999 23.928 16.9571V16.9475C23.988 15.6671 24 15.2606 24 12.0004C24 8.74022 23.9848 8.3337 23.928 7.05332C23.9048 6.001 23.7023 5.0031 23.3494 4.07962L23.3702 4.14044C23.0517 3.30819 22.5812 2.59918 21.9866 2.015L21.9858 2.0142C21.4016 1.41803 20.6918 0.947484 19.8996 0.643393L19.8596 0.629789C18.9969 0.296889 17.9982 0.0936281 16.9563 0.0720216H16.9467C15.6663 0.0120036 15.2598 0 11.9996 0H12.0004Z" fill="white"/>
</svg>
